<?xml version="1.0" standalone="no"?>
<!DOCTYPE svg PUBLIC "-//W3C//DTD SVG 20010904//EN"
 "http://www.w3.org/TR/2001/REC-SVG-20010904/DTD/svg10.dtd">
<svg version="1.0" xmlns="http://www.w3.org/2000/svg"
 width="460.000000pt" height="460.000000pt" viewBox="0 0 460.000000 460.000000"
 preserveAspectRatio="xMidYMid meet">
<metadata>
Created by potrace 1.14, written by Peter Selinger 2001-2017
</metadata>
<g transform="translate(0.000000,460.000000) scale(0.100000,-0.100000)"
fill="#000000" stroke="none">
<path d="M2555 4364 c-11 -2 -60 -5 -110 -8 -106 -6 -165 -15 -165 -26 0 -4
-21 -13 -46 -19 -26 -7 -64 -21 -84 -31 -21 -11 -40 -16 -44 -13 -3 3 -8 -2
-12 -11 -3 -9 -10 -16 -16 -16 -5 0 -39 -20 -76 -44 -91 -59 -206 -177 -227
-232 -9 -24 -21 -44 -26 -44 -5 0 -9 -9 -9 -19 0 -11 -4 -22 -9 -25 -5 -3 -12
-23 -16 -43 -4 -21 -10 -42 -15 -48 -12 -16 -21 -63 -31 -155 -5 -47 -13 -114
-17 -150 -8 -57 -4 -104 14 -163 5 -15 1 -17 -19 -12 -40 10 -67 -24 -67 -83
0 -27 -7 -72 -16 -101 -43 -144 9 -295 139 -406 40 -35 89 -46 102 -25 29 47
56 -115 62 -376 6 -243 4 -252 -90 -347 -28 -30 -81 -86 -116 -126 -112 -127
-208 -198 -404 -299 -98 -51 -206 -103 -240 -116 -34 -13 -129 -57 -212 -97
-82 -41 -184 -90 -225 -108 -140 -63 -235 -113 -258 -134 -59 -55 -82 -145
-87 -347 -3 -114 -8 -156 -23 -195 -13 -33 -23 -99 -31 -197 -9 -116 -18 -163
-40 -225 -16 -43 -32 -88 -35 -100 l-7 -23 1141 0 c1084 0 1142 1 1135 18 -10
25 -72 398 -90 538 -21 170 -51 342 -69 389 -8 22 -15 32 -15 23 -1 -9 4 -29
9 -43 14 -38 35 -160 70 -419 17 -124 33 -241 36 -258 4 -23 2 -28 -4 -18 -17
27 -41 143 -62 305 -25 196 -54 362 -75 433 -21 70 -29 63 -10 -8 29 -109 90
-500 75 -483 -13 16 -30 90 -50 228 -12 77 -30 173 -40 214 -10 40 -16 79 -13
86 2 8 -4 18 -15 24 -10 6 -27 23 -37 38 l-19 28 33 -28 c54 -45 57 -30 4 26
-55 58 -88 105 -81 113 3 3 29 -25 58 -62 29 -36 60 -68 69 -71 10 -2 23 -17
29 -31 10 -23 10 -24 5 -3 -3 13 -22 40 -42 60 -38 39 -115 136 -146 186 l-19
30 28 -25 c16 -14 53 -60 83 -102 54 -77 73 -98 73 -80 0 12 -71 113 -140 197
-72 89 -83 110 -36 65 21 -19 67 -79 104 -132 36 -54 69 -98 73 -98 5 0 15
-12 23 -27 11 -19 15 -23 16 -11 0 10 -8 25 -18 35 -11 10 -40 52 -67 93 -26
41 -70 102 -99 136 -90 110 -159 212 -93 139 20 -22 36 -43 37 -47 0 -4 21
-30 46 -59 25 -28 69 -88 99 -134 48 -75 75 -107 75 -90 0 4 -5 15 -10 25 -8
16 -8 18 5 14 8 -4 15 -10 15 -16 0 -5 21 -66 46 -136 26 -70 55 -165 65 -212
16 -69 18 -75 13 -30 -3 30 -25 116 -49 190 -24 74 -43 136 -40 138 7 7 42
-71 73 -163 30 -87 47 -178 92 -480 12 -77 32 -208 45 -292 14 -84 25 -166 25
-182 0 -17 5 -31 10 -31 7 0 9 13 5 32 -5 30 -55 357 -105 693 -12 77 -35 182
-52 233 -31 96 -32 138 -2 62 15 -36 19 -40 25 -24 5 15 11 9 33 -36 14 -30
23 -46 20 -35 -3 11 -8 29 -11 40 -4 16 -3 17 6 5 6 -8 16 -15 23 -15 18 0 74
-98 82 -142 7 -43 8 -169 2 -162 -3 2 -10 45 -16 94 -7 50 -19 101 -27 115
-11 20 -13 21 -8 4 15 -57 57 -376 65 -499 5 -77 14 -158 20 -180 5 -22 10
-73 10 -112 0 -40 4 -73 9 -73 5 0 7 26 5 58 -31 450 -34 602 -14 672 7 25 17
49 20 53 4 5 16 -33 26 -84 11 -51 20 -86 22 -77 2 9 -4 46 -13 82 -8 37 -15
69 -15 72 0 2 11 4 24 4 18 0 26 -7 29 -22 2 -13 4 20 4 72 -1 52 -3 83 -5 67
-3 -26 -12 -34 -24 -21 -3 3 5 40 19 82 14 44 26 109 28 150 2 41 6 76 8 79
13 12 43 9 49 -6 6 -14 7 -14 7 2 1 10 9 17 20 17 11 0 28 13 38 30 19 32 40
41 28 12 -8 -21 -8 -18 -5 -67 l2 -40 9 35 c5 19 8 55 6 79 -1 27 3 46 10 48
11 4 11 -109 -1 -407 -2 -52 0 -151 3 -220 6 -102 8 -68 10 185 2 211 7 332
16 380 l13 70 -4 -100 c-3 -55 -1 -136 5 -180 10 -78 10 -78 5 38 -2 66 0 117
5 117 5 0 13 -37 19 -82 l9 -83 2 84 c1 91 7 99 20 30 8 -42 9 -40 10 31 1 52
4 70 11 60 5 -8 10 -30 10 -47 0 -18 5 -33 11 -33 6 0 9 8 7 18 -2 9 3 25 11
34 16 18 43 122 45 171 0 15 6 27 13 27 9 0 11 -46 2 -57 -1 -2 -3 -7 -4 -13
-1 -5 -3 -11 -5 -12 -1 -2 -3 -12 -4 -23 -5 -37 -28 -110 -38 -122 -6 -7 -7
-13 -2 -13 5 0 2 -6 -8 -13 -16 -13 -33 -169 -42 -392 -2 -44 -2 10 -1 120 2
160 1 186 -7 130 -5 -38 -10 -172 -11 -297 -1 -124 -4 -224 -7 -222 -2 3 -7
39 -11 82 -4 54 -6 25 -5 -96 0 -94 -2 -172 -6 -172 -5 0 -8 24 -9 53 -1 28
-5 63 -10 77 -9 26 -4 -149 7 -245 7 -55 -11 -55 -19 0 -2 17 -4 -17 -4 -75 0
-78 2 -91 6 -50 l6 55 8 -52 8 -53 751 0 751 0 -7 63 c-4 34 -18 141 -31 237
-13 96 -29 247 -35 335 -19 287 -29 369 -52 434 -31 89 -84 142 -168 172 -89
31 -399 169 -659 293 -119 57 -226 107 -238 110 -40 13 -118 82 -152 135 -18
28 -36 51 -38 51 -3 0 -3 -29 0 -65 4 -41 3 -64 -3 -60 -6 3 -10 15 -10 26 0
30 -30 170 -44 204 -12 28 -13 25 -23 -65 -14 -122 -47 -215 -125 -354 -94
-168 -155 -256 -214 -312 -48 -45 -54 -55 -54 -91 0 -22 -3 -54 -6 -72 l-6
-31 -20 25 c-10 13 -23 38 -29 55 -6 16 -16 30 -22 30 -8 0 -8 3 1 9 19 12 -1
131 -25 149 -10 7 -18 16 -19 20 -4 34 -32 70 -168 212 -87 91 -89 93 -48 34
23 -33 60 -79 82 -102 45 -47 47 -50 23 -48 -18 1 -90 92 -189 238 -31 46 -54
75 -50 65 7 -23 159 -245 186 -275 23 -24 26 -42 8 -42 -12 0 -298 409 -298
426 0 4 12 -3 27 -17 23 -21 22 -18 -6 19 -31 40 -32 44 -17 61 9 10 16 27 16
39 0 29 46 101 70 110 10 4 19 12 18 17 0 6 22 11 50 12 44 2 54 -1 70 -22 11
-14 23 -25 27 -25 3 0 13 -7 21 -15 9 -8 24 -15 35 -15 10 0 19 -4 19 -10 0
-5 17 -10 37 -10 20 0 33 3 30 7 -15 14 118 87 147 79 20 -5 125 21 187 46 38
17 109 74 109 89 0 6 -11 -2 -26 -16 -39 -39 -98 -65 -151 -65 -163 -2 -209 7
-247 45 -14 14 -30 25 -35 25 -16 0 -31 35 -24 58 3 13 1 22 -6 22 -7 0 -11 6
-9 13 4 22 -12 68 -23 62 -6 -4 -7 8 -3 35 6 35 4 43 -15 56 -12 9 -19 20 -16
25 4 5 -1 9 -9 9 -8 0 -22 9 -30 21 -8 12 -19 18 -24 15 -17 -10 -41 4 -61 37
-18 31 -28 85 -36 215 -2 34 -7 67 -10 72 -3 4 -1 19 4 33 7 17 5 40 -5 75
-12 40 -13 56 -4 73 13 23 -1 51 -14 30 -11 -17 -26 -13 -20 4 7 17 -7 20 -22
5 -7 -7 -16 -4 -29 10 -16 17 -17 25 -7 40 7 11 12 28 12 37 0 15 11 18 78 21
81 3 111 15 68 26 -39 10 -31 23 18 30 53 8 96 44 96 81 0 32 11 32 47 0 24
-21 26 -26 13 -34 -8 -6 -15 -18 -15 -27 0 -17 -44 -48 -81 -57 -11 -2 -3 -3
16 -1 20 2 48 0 64 -4 26 -7 28 -10 29 -72 1 -53 -4 -76 -26 -121 -24 -49 -26
-60 -16 -83 7 -14 16 -26 22 -26 15 0 -3 -53 -22 -67 -10 -7 -26 -27 -35 -45
-9 -18 -22 -41 -29 -50 -9 -14 -9 -25 2 -50 7 -18 17 -58 21 -88 9 -68 19
-100 30 -100 5 0 15 -3 24 -6 10 -4 20 5 31 26 12 24 19 29 29 21 8 -6 21 -8
31 -5 13 5 14 9 3 15 -9 6 -5 8 12 7 36 -4 32 21 -7 42 -18 9 -30 20 -26 23 3
4 13 2 22 -3 10 -5 23 -5 30 -1 8 6 2 10 -19 14 -26 6 -31 11 -28 29 2 19 10
24 41 26 33 3 36 5 27 22 -6 11 -17 17 -24 14 -8 -3 -20 3 -27 13 -8 10 -24
23 -37 28 l-23 10 28 21 c27 20 142 54 182 54 16 0 7 13 -39 58 -55 53 -59 60
-54 92 3 19 9 80 14 135 4 55 11 112 15 128 10 39 -3 95 -28 120 -12 12 -27
34 -32 50 -16 43 -85 77 -157 77 -49 0 -61 4 -83 27 -14 15 -25 31 -25 34 0 4
-11 10 -25 13 -26 7 -34 31 -12 39 9 4 9 8 -1 15 -11 7 -12 25 -7 74 6 58 9
65 36 77 18 8 38 30 50 54 12 23 27 52 33 64 6 13 14 23 19 23 4 0 7 8 7 18 0
9 13 26 28 37 23 17 40 20 106 17 43 -2 87 -7 97 -13 13 -6 39 -6 81 2 82 16
140 14 177 -6 17 -8 39 -15 50 -15 15 0 19 -5 14 -17 -5 -14 -1 -15 28 -11 31
5 37 2 64 -33 16 -21 32 -39 35 -39 14 0 130 -82 139 -98 5 -9 12 -48 16 -87
8 -82 23 -157 33 -165 29 -22 45 -81 53 -191 8 -117 25 -235 37 -253 10 -17
21 27 21 91 1 74 14 107 49 123 16 7 22 14 15 18 -8 5 -7 25 4 72 16 69 15 94
-12 285 -20 147 -44 222 -107 335 -4 8 -12 24 -17 35 -26 60 -159 201 -233
247 -68 43 -69 44 -138 76 -60 27 -198 74 -210 71 -3 -1 -14 -3 -25 -5z m-259
-1002 c21 -12 18 -14 -46 -30 l-35 -8 41 -7 c23 -4 48 -14 55 -24 12 -15 12
-16 -6 -9 -11 4 -41 12 -67 18 -26 6 -45 15 -42 20 6 10 8 10 -55 -2 -41 -8
-56 -7 -66 4 -20 20 2 46 45 55 41 8 149 -2 176 -17z m-56 -100 c0 -13 -12
-22 -22 -16 -10 6 -1 24 13 24 5 0 9 -4 9 -8z m-274 -93 c3 -6 1 -16 -5 -22
-15 -15 -14 -27 3 -27 9 0 12 -7 9 -20 -6 -23 -12 -24 -35 -6 -16 12 -16 28
-2 74 4 15 20 16 30 1z m392 -556 c-5 -25 -28 -28 -28 -4 0 12 6 21 16 21 9 0
14 -7 12 -17z m-289 -1003 c68 -96 134 -189 147 -206 25 -32 31 -54 15 -54
-13 0 -328 472 -357 534 -44 94 -24 90 24 -5 26 -52 104 -173 171 -269z m921
120 c7 -36 18 -72 25 -80 7 -8 19 -53 28 -100 9 -47 17 -90 19 -95 2 -6 -1
-10 -7 -10 -5 0 -9 4 -7 9 1 4 -9 18 -23 30 -14 12 -25 32 -25 44 0 13 -9 76
-20 140 -11 64 -22 133 -25 152 l-4 35 14 -30 c7 -16 19 -59 25 -95z m-798
-363 c17 -21 27 -41 24 -45 -4 -3 -10 -2 -14 4 -4 6 -78 116 -164 246 -87 129
-158 238 -158 243 0 5 64 -86 141 -201 78 -115 155 -226 171 -247z m-298 334
c20 -33 57 -85 82 -115 50 -62 51 -76 1 -19 -37 41 -62 78 -101 146 -40 67
-26 58 18 -12z m60 -41 c27 -40 29 -46 9 -23 -15 17 -37 46 -47 65 -26 45 -8
25 38 -42z m1030 -160 c-10 -23 -22 30 -28 123 l-5 82 20 -95 c10 -52 16 -101
13 -110z m-1091 148 c14 -24 47 -68 75 -99 72 -83 106 -137 43 -69 -50 53
-115 141 -140 188 -21 39 -4 24 22 -20z m1056 -122 c1 -70 -5 -54 -12 29 -4
44 -3 61 2 45 5 -14 9 -47 10 -74z m-969 -43 c109 -136 127 -162 79 -112 -71
75 -190 229 -176 229 2 0 46 -53 97 -117z m1090 -67 c0 -3 -4 -8 -10 -11 -5
-3 -10 -1 -10 4 0 6 5 11 10 11 6 0 10 -2 10 -4z m-690 -76 c0 -15 -5 -12 -26
11 -19 22 -19 22 4 10 12 -6 22 -16 22 -21z m-250 -62 c18 -29 25 -46 18 -38
-18 19 -61 90 -55 90 3 0 20 -24 37 -52z m80 11 c0 -6 -4 -7 -10 -4 -5 3 -10
11 -10 16 0 6 5 7 10 4 6 -3 10 -11 10 -16z m35 3 c-3 -3 -11 0 -18 7 -9 10
-8 11 6 5 10 -3 15 -9 12 -12z m735 -49 c0 -32 -5 -28 -14 10 -4 19 -3 26 4
22 5 -3 10 -18 10 -32z m-762 15 c7 -7 12 -28 12 -47 0 -27 -3 -32 -10 -21 -5
8 -10 25 -10 38 0 12 -4 22 -10 22 -5 0 -10 5 -10 10 0 14 13 13 28 -2z m-18
-28 c0 -5 -4 -10 -10 -10 -5 0 -10 5 -10 10 0 6 5 10 10 10 6 0 10 -4 10 -10z
m70 -53 c0 -31 -3 -38 -10 -27 -13 20 -13 83 0 75 6 -3 10 -25 10 -48z m27
-14 c-3 -10 -5 -4 -5 12 0 17 2 24 5 18 2 -7 2 -21 0 -30z m-173 -164 c-2 -4
7 -57 21 -117 23 -104 31 -162 20 -151 -7 8 -56 195 -64 249 -7 44 -6 47 10
37 10 -6 16 -14 13 -18z m458 -171 c-8 -8 -9 -4 -5 13 4 13 8 18 11 10 2 -7
-1 -18 -6 -23z"/>
<path d="M2941 3453 c-7 -14 -27 -18 -86 -21 -66 -4 -84 -9 -122 -34 -71 -48
-46 -52 122 -19 88 17 159 14 189 -10 23 -18 26 -18 26 -4 0 20 -51 70 -91 91
-25 13 -29 12 -38 -3z"/>
<path d="M2740 3311 c-43 -23 -44 -35 -4 -39 27 -3 33 -8 38 -35 4 -19 2 -33
-4 -35 -25 -9 -6 -18 33 -16 23 2 50 3 59 3 10 1 22 15 29 36 7 19 17 35 22
35 5 0 21 -13 35 -30 25 -28 52 -40 52 -22 0 23 -109 92 -145 92 -9 0 -14 4
-11 9 6 9 -25 21 -54 21 -8 0 -31 -8 -50 -19z m130 -71 c0 -5 -4 -10 -9 -10
-6 0 -13 5 -16 10 -3 6 1 10 9 10 9 0 16 -4 16 -10z"/>
<path d="M2980 3260 c0 -5 5 -10 11 -10 5 0 7 5 4 10 -3 6 -8 10 -11 10 -2 0
-4 -4 -4 -10z"/>
<path d="M2650 2839 c0 -5 5 -7 10 -4 6 3 10 8 10 11 0 2 -4 4 -10 4 -5 0 -10
-5 -10 -11z"/>
<path d="M2891 2784 c15 -16 32 -40 39 -52 6 -13 14 -21 17 -19 9 10 -26 64
-54 82 l-28 18 26 -29z"/>
<path d="M2860 2680 c-8 -5 -31 -10 -51 -10 -34 0 -37 -3 -47 -40 -5 -22 -6
-40 -2 -40 4 0 32 16 61 35 29 20 58 34 66 31 11 -4 11 -1 3 14 -12 23 -11 23
-30 10z"/>
<path d="M2756 950 c-8 -181 1 -415 16 -440 6 -10 7 -7 2 10 -4 14 -8 154 -7
313 0 158 -1 287 -2 287 -1 0 -5 -76 -9 -170z"/>
<path d="M2792 1080 c0 -25 4 -56 8 -70 8 -24 8 -24 8 5 1 17 -3 48 -7 70 l-9
40 0 -45z"/>
<path d="M2719 940 c-2 -74 -2 -173 1 -220 5 -66 7 -39 10 115 3 110 2 209 -1
220 -4 11 -8 -41 -10 -115z"/>
<path d="M2210 1046 c0 -5 14 -51 30 -103 17 -51 31 -103 31 -116 1 -16 3 -17
6 -5 2 9 -5 51 -17 93 -21 75 -49 148 -50 131z"/>
<path d="M2693 960 c0 -36 2 -50 4 -32 2 17 2 47 0 65 -2 17 -4 3 -4 -33z"/>
<path d="M2341 969 c-1 -4 6 -26 15 -50 8 -24 29 -134 45 -244 16 -110 40
-267 53 -350 14 -82 28 -174 31 -203 4 -29 9 -51 12 -49 6 7 -27 249 -77 562
-10 66 -23 149 -28 185 -8 53 -49 171 -51 149z"/>
<path d="M2796 691 c3 -156 9 -291 14 -300 6 -10 7 15 4 69 -3 47 -10 182 -14
300 -8 210 -8 209 -4 -69z"/>
<path d="M2864 830 c0 -63 1 -89 3 -57 2 31 2 83 0 115 -2 31 -3 5 -3 -58z"/>
<path d="M2426 907 c3 -10 9 -15 12 -12 3 3 0 11 -7 18 -10 9 -11 8 -5 -6z"/>
<path d="M2405 885 c3 -11 13 -69 21 -130 21 -158 52 -335 53 -300 1 50 -57
413 -69 432 -11 17 -11 17 -5 -2z"/>
<path d="M2282 770 c0 -19 2 -27 5 -17 2 9 2 25 0 35 -3 9 -5 1 -5 -18z"/>
<path d="M2682 780 c0 -14 2 -19 5 -12 2 6 2 18 0 25 -3 6 -5 1 -5 -13z"/>
<path d="M2321 750 c-1 -21 64 -460 93 -620 40 -224 29 -123 -24 221 -52 335
-67 425 -69 399z"/>
<path d="M2292 705 c0 -16 2 -22 5 -12 2 9 2 23 0 30 -3 6 -5 -1 -5 -18z"/>
<path d="M2562 675 c-1 -11 5 -51 12 -90 8 -38 14 -59 14 -45 1 14 -5 54 -12
90 -8 36 -14 56 -14 45z"/>
<path d="M2632 665 c-1 -11 3 -38 7 -60 7 -34 9 -35 9 -10 0 35 -15 101 -16
70z"/>
<path d="M2306 605 c10 -132 90 -623 93 -568 1 22 -16 133 -59 398 -11 66 -24
147 -29 180 l-10 60 5 -70z"/>
<path d="M2675 615 c2 -16 12 -162 21 -322 10 -161 22 -293 26 -293 4 0 8 8 8
18 0 58 -42 563 -50 592 -8 29 -9 30 -5 5z"/>
<path d="M2711 594 c0 -11 3 -14 6 -6 3 7 2 16 -1 19 -3 4 -6 -2 -5 -13z"/>
<path d="M2612 570 c0 -19 2 -27 5 -17 2 9 2 25 0 35 -3 9 -5 1 -5 -18z"/>
<path d="M2723 480 c-1 -52 5 -165 12 -250 l14 -155 -6 150 c-3 83 -9 195 -13
250 l-7 100 0 -95z"/>
<path d="M2653 510 c0 -30 2 -43 4 -27 2 15 2 39 0 55 -2 15 -4 2 -4 -28z"/>
<path d="M2553 515 c0 -22 2 -30 4 -17 2 12 2 30 0 40 -3 9 -5 -1 -4 -23z"/>
<path d="M2623 460 c0 -41 2 -58 4 -37 2 20 2 54 0 75 -2 20 -4 3 -4 -38z"/>
<path d="M2591 414 c1 -43 5 -113 9 -154 5 -48 6 -22 3 75 -6 158 -14 215 -12
79z"/>
<path d="M2758 248 c-2 -133 -2 -245 -1 -247 2 -2 5 -2 8 1 7 7 9 478 2 484
-3 3 -7 -104 -9 -238z"/>
<path d="M2482 390 c0 -19 2 -27 5 -17 2 9 2 25 0 35 -3 9 -5 1 -5 -18z"/>
<path d="M2833 365 c0 -22 2 -30 4 -17 2 12 2 30 0 40 -3 9 -5 -1 -4 -23z"/>
<path d="M2853 320 c0 -30 2 -43 4 -27 2 15 2 39 0 55 -2 15 -4 2 -4 -28z"/>
<path d="M2563 320 c0 -25 2 -35 4 -22 2 12 2 32 0 45 -2 12 -4 2 -4 -23z"/>
<path d="M2802 325 c0 -16 2 -22 5 -12 2 9 2 23 0 30 -3 6 -5 -1 -5 -18z"/>
<path d="M2663 305 c0 -22 2 -30 4 -17 2 12 2 30 0 40 -3 9 -5 -1 -4 -23z"/>
<path d="M2633 275 c0 -27 2 -38 4 -22 2 15 2 37 0 50 -2 12 -4 0 -4 -28z"/>
<path d="M2804 205 c0 -49 1 -71 3 -48 2 23 2 64 0 90 -2 26 -3 8 -3 -42z"/>
<path d="M2573 200 c0 -30 2 -43 4 -27 2 15 2 39 0 55 -2 15 -4 2 -4 -28z"/>
<path d="M2671 179 c1 -35 5 -91 9 -124 5 -40 6 -21 3 60 -6 128 -14 171 -12
64z"/>
<path d="M2832 139 c-1 -42 -5 -92 -8 -110 -4 -27 -3 -31 6 -17 6 11 9 54 7
110 l-3 93 -2 -76z"/>
<path d="M2643 115 c0 -38 2 -53 4 -32 2 20 2 52 0 70 -2 17 -4 1 -4 -38z"/>
<path d="M2613 95 c0 -44 2 -61 4 -37 2 23 2 59 0 80 -2 20 -4 1 -4 -43z"/>
<path d="M2582 115 c0 -16 2 -22 5 -12 2 9 2 23 0 30 -3 6 -5 -1 -5 -18z"/>
<path d="M2792 50 c0 -19 2 -27 5 -17 2 9 2 25 0 35 -3 9 -5 1 -5 -18z"/>
<path d="M2583 35 c0 -22 2 -30 4 -17 2 12 2 30 0 40 -3 9 -5 -1 -4 -23z"/>
<path d="M2502 20 c0 -14 2 -19 5 -12 2 6 2 18 0 25 -3 6 -5 1 -5 -13z"/>
</g>
</svg>
